M48
T1C0.032
T2C0.039
T3C0.047
T4C0.126
%
T4
X1969Y1969
X37402Y1969
X1969Y17717
X37402Y17717
T1
X4409Y6374
X4409Y7374
X4409Y8374
X4409Y9374
X7409Y9374
X7409Y8374
X7409Y7374
X7409Y6374
X11811Y4724
X15811Y4724
X11811Y3150
X15811Y3150
X17717Y3150
X21717Y3150
X23622Y4724
X27622Y4724
X29528Y4724
X33528Y4724
X29528Y3150
X33528Y3150
X9843Y1969
X10826Y1969
X13780Y1969
X14764Y1969
X17717Y1969
X18701Y1969
X21654Y1969
X22638Y1969
T2
X25098Y7024
X25098Y8024
X25098Y9024
X25098Y10024
X25098Y11024
X25098Y12024
X25098Y13024
X25098Y14024
X25098Y15024
X26098Y15024
X26098Y14024
X26098Y13024
X26098Y12024
X26098Y11024
X26098Y10024
X26098Y9024
X26098Y8024
X26098Y7024
X16685Y17717
X17685Y17717
X18685Y17717
X19685Y17717
X20685Y17717
X21685Y17717
X22685Y17717
T3
X3937Y1181
X5445Y1181
X7874Y1181
X9382Y1181
X35433Y9843
X36941Y9843
M30
