G04 Top Soldermask*
%FSLAX23Y23*%
%MOIN*%
%ADD10C,0.064*%
%ADD11R,0.064X0.064*%
%ADD12C,0.071*%
%ADD13C,0.083*%
%ADD14C,0.138*%
%LPD*%
D11*
X4409Y6374D03*
D10*
X4409Y7374D03*
X4409Y8374D03*
X4409Y9374D03*
X7409Y9374D03*
X7409Y8374D03*
X7409Y7374D03*
X7409Y6374D03*
D12*
X25098Y7024D03*
X25098Y8024D03*
X25098Y9024D03*
X25098Y10024D03*
X25098Y11024D03*
X25098Y12024D03*
X25098Y13024D03*
X25098Y14024D03*
X25098Y15024D03*
X26098Y15024D03*
X26098Y14024D03*
X26098Y13024D03*
X26098Y12024D03*
X26098Y11024D03*
X26098Y10024D03*
X26098Y9024D03*
X26098Y8024D03*
X26098Y7024D03*
D12*
X16685Y17717D03*
X17685Y17717D03*
X18685Y17717D03*
X19685Y17717D03*
X20685Y17717D03*
X21685Y17717D03*
X22685Y17717D03*
D10*
X11811Y4724D03*
X15811Y4724D03*
X11811Y3150D03*
X15811Y3150D03*
X17717Y3150D03*
X21717Y3150D03*
X23622Y4724D03*
X27622Y4724D03*
X29528Y4724D03*
X33528Y4724D03*
X29528Y3150D03*
X33528Y3150D03*
X9843Y1969D03*
X10826Y1969D03*
X13780Y1969D03*
X14764Y1969D03*
X17717Y1969D03*
X18701Y1969D03*
X21654Y1969D03*
X22638Y1969D03*
D13*
X3937Y1181D03*
X5445Y1181D03*
X7874Y1181D03*
X9382Y1181D03*
X35433Y9843D03*
X36941Y9843D03*
D14*
X1969Y1969D03*
X37402Y1969D03*
X1969Y17717D03*
X37402Y17717D03*
M02*
