M48
INCH,LZ
VER,1
FMAT,2
T01C0.03150F1B1S6H2000
T02C0.03937F1B1S6H2000
T03C0.04724F1B1S6H2000
T04C0.12600F1B1S6H2000
DETECT,ON
ATC,ON
%
T01
X0.4409Y0.6374
X0.4409Y0.7374
X0.4409Y0.8374
X0.4409Y0.9374
X0.7409Y0.9374
X0.7409Y0.8374
X0.7409Y0.7374
X0.7409Y0.6374
X1.1811Y0.4724
X1.5811Y0.4724
X1.1811Y0.3150
X1.5811Y0.3150
X1.7717Y0.3150
X2.1717Y0.3150
X2.3622Y0.4724
X2.7622Y0.4724
X2.9528Y0.4724
X3.3528Y0.4724
X2.9528Y0.3150
X3.3528Y0.3150
X0.9843Y0.1969
X1.0826Y0.1969
X1.3780Y0.1969
X1.4764Y0.1969
X1.7717Y0.1969
X1.8701Y0.1969
X2.1654Y0.1969
X2.2638Y0.1969
T02
X2.5098Y0.7024
X2.5098Y0.8024
X2.5098Y0.9024
X2.5098Y1.0024
X2.5098Y1.1024
X2.5098Y1.2024
X2.5098Y1.3024
X2.5098Y1.4024
X2.5098Y1.5024
X2.6098Y1.5024
X2.6098Y1.4024
X2.6098Y1.3024
X2.6098Y1.2024
X2.6098Y1.1024
X2.6098Y1.0024
X2.6098Y0.9024
X2.6098Y0.8024
X2.6098Y0.7024
X1.6685Y1.7717
X1.7685Y1.7717
X1.8685Y1.7717
X1.9685Y1.7717
X2.0685Y1.7717
X2.1685Y1.7717
X2.2685Y1.7717
T03
X0.3937Y0.1181
X0.5445Y0.1181
X0.7874Y0.1181
X0.9382Y0.1181
X3.5433Y0.9843
X3.6941Y0.9843
T04
X0.1969Y0.1969
X3.7402Y0.1969
X0.1969Y1.7717
X3.7402Y1.7717
M30
