M48
INCH,LZ
VER,1
FMAT,2
T01C0.035984F1B1S6H2000
T02C0.036024F1B1S6H2000
T03C0.03937F1B1S6H2000
T04C0.04F1B1S6H2000
T05C0.047244F1B1S6H2000
T06C0.05F1B1S6H2000
DETECT,ON
ATC,ON
%
T01
X1.7750Y0.4200
Y1.1300
T02
X2.5750Y0.4200
X2.2750
X1.8750
X2.5700Y0.7800
X2.2700
X1.8700
X1.7700
X2.5750Y1.1300
X2.2750
X1.8750
X2.5750Y1.5200
X2.2750
X1.8750
X1.7750
T03
X1.9150Y3.3500
Y3.2500
Y3.1500
Y3.0500
Y2.9500
Y2.8500
Y2.7500
Y2.6500
X1.0150Y3.3500
Y3.2500
Y3.1500
Y3.0500
Y2.9500
Y2.8500
Y2.7500
Y2.6500
T04
X2.7800Y3.3050
Y3.2050
Y3.1050
Y3.0050
Y2.9050
Y2.8050
X2.3800
Y2.9050
Y3.0050
Y3.1050
Y3.2050
Y3.3050
T05
X3.0750Y0.4000
X3.1750
X3.0700Y1.1300
X3.1700
X3.0800Y0.8350
X3.1800
X3.0650Y1.4450
X3.1650
X3.0600Y1.7850
X3.1600
T06
X0.8969Y1.5887
X1.5031
X1.1017Y0.4313
X1.2985
M30
