%FSLAX24Y24*%
%MOIN*%
%SFA1.000B1.000*%

%MIA0B0*%
%IPPOS*%
%ADD10C,0.01000*%
%ADD11R,0.07874X0.07874*%
%ADD12C,0.07874*%
%ADD13C,0.07400*%
%ADD14C,0.07402*%
%ADD15R,0.06299X0.06299*%
%ADD16C,0.12000*%
%ADD17C,0.12008*%
%ADD18C,0.06000*%
%LNTOP.GTL*%
%LPD*%
G54D11*
X30750Y4000D03*
G54D12*
X31750D03*
G54D11*
X30700Y11300D03*
G54D12*
X31700D03*
G54D11*
X30800Y8350D03*
G54D12*
X31800D03*
G54D11*
X30650Y14450D03*
G54D12*
X31650D03*
G54D11*
X30600Y17850D03*
G54D12*
X31600D03*
G54D13*
X27800Y33050D03*
Y32050D03*
Y31050D03*
Y30050D03*
Y29050D03*
Y28050D03*
X23800D03*
Y29050D03*
G54D14*
Y30050D03*
G54D13*
Y31050D03*
Y32050D03*
Y33050D03*
G54D15*
X19150Y33500D03*
Y32500D03*
Y31500D03*
Y30500D03*
Y29500D03*
Y28500D03*
Y27500D03*
Y26500D03*
X10150Y33500D03*
Y32500D03*
Y31500D03*
Y30500D03*
Y29500D03*
Y28500D03*
Y27500D03*
Y26500D03*
G54D16*
X8969Y15888D03*
X15031D03*
X11016Y4313D03*
G54D17*
X12985D03*
G54D18*
X25750Y4200D03*
X22750D03*
X18750D03*
X17750D03*
X25700Y7800D03*
X22700D03*
X18700D03*
X17700D03*
X25750Y11300D03*
X22750D03*
X18750D03*
X17750D03*
X25750Y15200D03*
X22750D03*
X18750D03*
X17750D03*
G54D10*
X16450Y10550D02*
G01Y4200D01*
X8969Y15888D02*
G01Y10550D01*
X16450*
Y15200*
X17750D02*
G01X16450D01*
X17750Y11300D02*
G01X16450D01*
X17700Y7800D02*
G01X16450D01*
X17750Y4200D02*
G01X16450D01*
X12985Y4312D02*
G01X14547Y2750D01*
X28996*
X30750Y4000*
X11017Y4312D02*
G01X13729Y1600D01*
X29350*
X31750Y4000*
X25750Y4200D02*
G01X27650D01*
X31800Y8350*
X22750Y4200D02*
G01X23502Y4950D01*
X26898*
X30800Y8350*
X25700Y7800D02*
G01X28200D01*
X31700Y11300*
X22700Y7800D02*
G01X25700Y10800D01*
X29692*
X30700Y11300*
X25750D02*
G01X28500D01*
X31650Y14450*
X22750Y11300D02*
G01X25900Y14450D01*
X30650*
X10150Y29500D02*
G01X14925Y25150D01*
X23800*
Y28050*
Y31050D02*
G01X22025D01*
X19150Y33500*
X27800Y31050D02*
G01X25950Y31100D01*
Y35750*
X22200*
X12825*
X10150Y33500*
X23800Y30050D02*
G01X27800D01*
Y30050*
X10150Y32500D02*
G01X14950D01*
Y34500*
X25100*
Y30100*
X25750Y15200D02*
G01X28950D01*
X31600Y17850*
X22750Y15200D02*
G01X25400Y17850D01*
X30600*
M02*
