%FSLAX24Y24*%
%MOIN*%
%SFA1.000B1.000*%

%MIA0B0*%
%IPPOS*%
%ADD10C,0.01000*%
%ADD26C,0.00600*%
%ADD27C,0.00598*%
%ADD28C,0.00984*%
%ADD29C,0.00800*%
%ADD72C,0.00799*%
%LNTOPSILK.GTO*%
%LPD*%
G54D26*
X31200Y4904D02*
G01Y4475D01*
Y4904D02*
G01X31384D01*
X31445Y4884*
X31466Y4863*
X31486Y4822*
Y4761*
X31466Y4720*
X31445Y4700*
X31384Y4679*
X31200*
X31642Y4802D02*
G01Y4822D01*
X31662Y4863*
X31683Y4884*
X31724Y4904*
X31805*
X31846Y4884*
X31867Y4863*
X31887Y4822*
Y4781*
X31867Y4740*
X31826Y4679*
X31621Y4475*
X31908*
X31150Y12204D02*
G01Y11775D01*
Y12204D02*
G01X31334D01*
X31395Y12184*
X31416Y12163*
X31436Y12122*
Y12061*
X31416Y12020*
X31395Y12000*
X31334Y11979*
X31150*
X31612Y12204D02*
G01X31837D01*
X31715Y12040*
X31776*
X31817Y12020*
X31837Y12000*
X31858Y11938*
Y11897*
X31837Y11836*
X31796Y11795*
X31735Y11775*
X31674*
X31612Y11795*
X31592Y11815*
X31571Y11856*
X31250Y9254D02*
G01Y8825D01*
Y9254D02*
G01X31434D01*
X31495Y9234*
X31516Y9213*
X31536Y9172*
Y9111*
X31516Y9070*
X31495Y9050*
X31434Y9029*
X31250*
X31876Y9254D02*
G01X31671Y8968D01*
X31978*
X31876Y9254D02*
G01Y8825D01*
X31100Y15354D02*
G01Y14925D01*
Y15354D02*
G01X31284D01*
X31345Y15334*
X31366Y15313*
X31386Y15272*
Y15211*
X31366Y15170*
X31345Y15150*
X31284Y15129*
X31100*
X31767Y15354D02*
G01X31562D01*
X31542Y15170*
X31562Y15190*
X31624Y15211*
X31685*
X31746Y15190*
X31787Y15150*
X31808Y15088*
Y15047*
X31787Y14986*
X31746Y14945*
X31685Y14925*
X31624*
X31562Y14945*
X31542Y14965*
X31521Y15006*
X31050Y18754D02*
G01Y18325D01*
Y18754D02*
G01X31234D01*
X31295Y18734*
X31316Y18713*
X31336Y18672*
Y18611*
X31316Y18570*
X31295Y18550*
X31234Y18529*
X31050*
X31717Y18693D02*
G01X31696Y18734D01*
X31635Y18754*
X31594*
X31533Y18734*
X31492Y18672*
X31471Y18570*
Y18468*
X31492Y18386*
X31533Y18345*
X31594Y18325*
X31615*
X31676Y18345*
X31717Y18386*
X31737Y18447*
Y18468*
X31717Y18529*
X31676Y18570*
X31615Y18590*
X31594*
X31533Y18570*
X31492Y18529*
X31471Y18468*
X25780Y34100D02*
G01Y33671D01*
Y34100D02*
G01X25964D01*
X26025Y34080*
X26046Y34059*
X26066Y34018*
Y33957*
X26046Y33916*
X26025Y33896*
X25964Y33875*
X25780*
X26201Y34018D02*
G01X26242Y34039D01*
X26304Y34100*
Y33671*
G54D27*
X14377Y22195D02*
G01Y22631D01*
X14405Y22713*
X14432Y22740*
X14486Y22767*
X14541*
X14595Y22740*
X14623Y22713*
X14650Y22631*
Y22576*
X14197Y22195D02*
G01Y22767D01*
X14017Y22195D02*
G01Y22767D01*
Y22195D02*
G01X13635Y22767D01*
Y22195D02*
G01Y22767D01*
X13455Y22195D02*
G01Y22767D01*
X13248Y22331D02*
G01Y22304D01*
X13221Y22249*
X13194Y22222*
X13139Y22195*
X13030*
X12975Y22222*
X12948Y22249*
X12921Y22304*
Y22358*
X12948Y22413*
X13003Y22495*
X13275Y22767*
X12894*
G54D26*
X16140Y24028D02*
G01Y24219D01*
Y24028D02*
G01X16058D01*
X16031Y24037*
X16022Y24046*
X16013Y24065*
Y24083*
X16022Y24101*
X16031Y24110*
X16058Y24119*
X16140*
X16076D02*
G01X16013Y24219D01*
X15844Y24092D02*
G01Y24219D01*
Y24119D02*
G01X15862Y24101D01*
X15880Y24092*
X15907*
X15925Y24101*
X15944Y24119*
X15953Y24146*
Y24165*
X15944Y24192*
X15925Y24210*
X15907Y24219*
X15880*
X15862Y24210*
X15844Y24192*
X15675Y24028D02*
G01Y24219D01*
Y24119D02*
G01X15693Y24101D01*
X15711Y24092*
X15738*
X15756Y24101*
X15775Y24119*
X15784Y24146*
Y24165*
X15775Y24192*
X15756Y24210*
X15738Y24219*
X15711*
X15693Y24210*
X15675Y24192*
X15615Y24028D02*
G01X15605Y24037D01*
X15596Y24028*
X15605Y24019*
X15615Y24028*
X15605Y24092D02*
G01Y24219D01*
X15491Y24092D02*
G01X15509Y24101D01*
X15527Y24119*
X15536Y24146*
Y24165*
X15527Y24192*
X15509Y24210*
X15491Y24219*
X15464*
X15445Y24210*
X15427Y24192*
X15418Y24165*
Y24146*
X15427Y24119*
X15445Y24101*
X15464Y24092*
X15491*
X15145Y24028D02*
G01X15218Y24219D01*
X15145Y24028D02*
G01X15073Y24219D01*
X15191Y24155D02*
G01X15100D01*
X15013Y24092D02*
G01Y24219D01*
Y24128D02*
G01X14985Y24101D01*
X14967Y24092*
X14940*
X14922Y24101*
X14913Y24128*
Y24219*
X14825Y24028D02*
G01Y24183D01*
X14816Y24210*
X14798Y24219*
X14780*
X14853Y24092D02*
G01X14789D01*
X14720Y24146D02*
G01X14611D01*
Y24128*
X14620Y24110*
X14629Y24101*
X14647Y24092*
X14675*
X14693Y24101*
X14711Y24119*
X14720Y24146*
Y24165*
X14711Y24192*
X14693Y24210*
X14675Y24219*
X14647*
X14629Y24210*
X14611Y24192*
X14551Y24092D02*
G01Y24219D01*
Y24128D02*
G01X14524Y24101D01*
X14505Y24092*
X14478*
X14460Y24101*
X14451Y24128*
Y24219*
X14391Y24092D02*
G01Y24219D01*
Y24128D02*
G01X14364Y24101D01*
X14345Y24092*
X14318*
X14300Y24101*
X14291Y24128*
Y24219*
X14122Y24092D02*
G01Y24219D01*
Y24119D02*
G01X14140Y24101D01*
X14158Y24092*
X14185*
X14204Y24101*
X14222Y24119*
X14231Y24146*
Y24165*
X14222Y24192*
X14204Y24210*
X14185Y24219*
X14158*
X14140Y24210*
X14122Y24192*
X13782Y24028D02*
G01Y24219D01*
Y24028D02*
G01X13664D01*
X13782Y24119D02*
G01X13709D01*
X13495Y24092D02*
G01Y24219D01*
Y24119D02*
G01X13513Y24101D01*
X13531Y24092*
X13558*
X13576Y24101*
X13595Y24119*
X13604Y24146*
Y24165*
X13595Y24192*
X13576Y24210*
X13558Y24219*
X13531*
X13513Y24210*
X13495Y24192*
X13325Y24119D02*
G01X13344Y24101D01*
X13362Y24092*
X13389*
X13407Y24101*
X13425Y24119*
X13435Y24146*
Y24165*
X13425Y24192*
X13407Y24210*
X13389Y24219*
X13362*
X13344Y24210*
X13325Y24192*
X13265Y24028D02*
G01X13256Y24037D01*
X13247Y24028*
X13256Y24019*
X13265Y24028*
X13256Y24092D02*
G01Y24219D01*
X13187Y24092D02*
G01Y24219D01*
Y24128D02*
G01X13160Y24101D01*
X13142Y24092*
X13115*
X13096Y24101*
X13087Y24128*
Y24219*
X12918Y24092D02*
G01Y24237D01*
X12927Y24265*
X12936Y24274*
X12955Y24283*
X12982*
X13000Y24274*
X12918Y24119D02*
G01X12936Y24101D01*
X12955Y24092*
X12982*
X13000Y24101*
X13018Y24119*
X13027Y24146*
Y24165*
X13018Y24192*
X13000Y24210*
X12982Y24219*
X12955*
X12936Y24210*
X12918Y24192*
X12718Y24028D02*
G01Y24165D01*
X12709Y24192*
X12691Y24210*
X12664Y24219*
X12645*
X12618Y24210*
X12600Y24192*
X12591Y24165*
Y24028*
X12531D02*
G01Y24219D01*
Y24028D02*
G01X12449D01*
X12422Y24037*
X12413Y24046*
X12404Y24065*
Y24092*
X12413Y24110*
X12422Y24119*
X12449Y24128*
X12531*
X16140Y36292D02*
G01X16085Y36419D01*
X16031Y36292D02*
G01X16085Y36419D01*
X15971Y36265D02*
G01X15953Y36255D01*
X15925Y36228*
Y36419*
X15856Y36374D02*
G01X15865Y36383D01*
X15856Y36392*
X15847Y36383*
X15856Y36374*
X15787Y36265D02*
G01X15769Y36255D01*
X15742Y36228*
Y36419*
X7461Y10111D02*
G01X7891D01*
X7461D02*
G01Y10295D01*
X7482Y10356*
X7502Y10376*
X7543Y10397*
X7605*
X7646Y10376*
X7666Y10356*
X7686Y10295*
Y10111*
X7523Y10818D02*
G01X7482Y10777D01*
X7461Y10716*
Y10634*
X7482Y10573*
X7523Y10532*
X7564*
X7605Y10552*
X7625Y10573*
X7646Y10614*
X7686Y10736*
X7707Y10777*
X7727Y10798*
X7768Y10818*
X7830*
X7871Y10777*
X7891Y10716*
Y10634*
X7871Y10573*
X7830Y10532*
X7461Y10953D02*
G01X7768D01*
X7830Y10974*
X7871Y11015*
X7891Y11076*
Y11117*
X7871Y11178*
X7830Y11219*
X7768Y11240*
X7461*
X7543Y11375D02*
G01X7523Y11416D01*
X7461Y11477*
X7891*
G54D28*
X10774Y5489D02*
G01X11224Y5318D01*
X10774Y5489D02*
G01X11224Y5661D01*
X11074Y5382D02*
G01Y5597D01*
X10881Y6124D02*
G01X10839Y6103D01*
X10795Y6061*
X10774Y6018*
Y5932*
X10795Y5889*
X10839Y5845*
X10881Y5824*
X10945Y5803*
X11053*
X11118Y5824*
X11160Y5845*
X11203Y5889*
X11224Y5932*
Y6018*
X11203Y6061*
X11160Y6103*
X11118Y6124*
X12774Y5489D02*
G01X13224Y5318D01*
X12774Y5489D02*
G01X13224Y5661D01*
X13074Y5382D02*
G01Y5597D01*
X12881Y6124D02*
G01X12839Y6103D01*
X12795Y6061*
X12774Y6018*
Y5932*
X12795Y5889*
X12839Y5845*
X12881Y5824*
X12945Y5803*
X13053*
X13118Y5824*
X13160Y5845*
X13203Y5889*
X13224Y5932*
Y6018*
X13203Y6061*
X13160Y6103*
X13118Y6124*
X14855Y14582D02*
G01X15240D01*
X15048Y14389D02*
G01Y14776D01*
X8999Y14389D02*
G01Y14776D01*
X10831Y7838D02*
G01X11594D01*
X10831Y8347D02*
G01X11594D01*
X11194Y7838D02*
G01Y8347D01*
X10831Y8586D02*
G01X11594D01*
Y8586D02*
G01Y9024D01*
X10831Y9264D02*
G01X11594D01*
X10831Y9772D02*
G01X11340Y9264D01*
X11159Y9445D02*
G01X11594Y9772D01*
X11268Y10013D02*
G01Y10666D01*
X10831Y10907D02*
G01X11594D01*
X10831D02*
G01Y11234D01*
X10868Y11343*
X10903Y11380*
X10977Y11416*
X11085*
X11159Y11380*
X11194Y11343*
X11231Y11234*
Y10907*
X10831Y11657D02*
G01X11594D01*
X10831D02*
G01X11594Y11947D01*
X10831Y12238D02*
G01X11594Y11947D01*
X10831Y12238D02*
G01X11594D01*
X10831Y12697D02*
G01X10868Y12586D01*
X10977Y12514*
X11159Y12478*
X11268*
X11449Y12514*
X11559Y12586*
X11594Y12697*
Y12768*
X11559Y12878*
X11449Y12951*
X11268Y12986*
X11159*
X10977Y12951*
X10868Y12878*
X10831Y12768*
Y12697*
X10977Y13226D02*
G01X10940Y13299D01*
X10831Y13409*
X11594*
G54D29*
X12313Y7839D02*
G01X12689D01*
X12313Y7957D02*
G01X12689D01*
X12313D02*
G01X12689Y8207D01*
X12313D02*
G01X12689D01*
X12313Y8324D02*
G01X12689D01*
X12313D02*
G01Y8486D01*
X12331Y8539*
X12348Y8557*
X12385Y8576*
X12439*
X12473Y8557*
X12491Y8539*
X12510Y8486*
Y8324*
X12313Y8693D02*
G01X12581D01*
X12635Y8711*
X12670Y8747*
X12689Y8801*
Y8836*
X12670Y8891*
X12635Y8926*
X12581Y8945*
X12313*
Y9188D02*
G01X12689D01*
X12313Y9063D02*
G01Y9313D01*
X12473Y9449D02*
G01X12491Y9430D01*
X12510Y9449*
X12491Y9466*
X12473Y9449*
X12599D02*
G01X12616Y9430D01*
X12635Y9449*
X12616Y9466*
X12599Y9449*
X12385Y9861D02*
G01X12366Y9897D01*
X12313Y9949*
X12689*
X12313Y10176D02*
G01X12331Y10122D01*
X12385Y10086*
X12473Y10068*
X12527*
X12616Y10086*
X12670Y10122*
X12689Y10176*
Y10211*
X12670Y10264*
X12616Y10301*
X12527Y10318*
X12473*
X12385Y10301*
X12331Y10264*
X12313Y10211*
Y10176*
Y10543D02*
G01X12331Y10491D01*
X12385Y10455*
X12473Y10436*
X12527*
X12616Y10455*
X12670Y10491*
X12689Y10543*
Y10580*
X12670Y10634*
X12616Y10670*
X12527Y10688*
X12473*
X12385Y10670*
X12331Y10634*
X12313Y10580*
Y10543*
X12527Y10805D02*
G01Y11128D01*
X12402Y11264D02*
G01X12385D01*
X12348Y11282*
X12331Y11299*
X12313Y11334*
Y11407*
X12331Y11443*
X12348Y11461*
X12385Y11478*
X12420*
X12456Y11461*
X12510Y11424*
X12689Y11245*
Y11495*
X12313Y11793D02*
G01X12564Y11614D01*
Y11882*
X12313Y11793D02*
G01X12689D01*
X12313Y12107D02*
G01X12331Y12055D01*
X12385Y12018*
X12473Y12001*
X12527*
X12616Y12018*
X12670Y12055*
X12689Y12107*
Y12143*
X12670Y12197*
X12616Y12234*
X12527Y12251*
X12473*
X12385Y12234*
X12331Y12197*
X12313Y12143*
Y12107*
Y12370D02*
G01X12689Y12513D01*
X12313Y12655D02*
G01X12689Y12513D01*
X12313Y12916D02*
G01X12689Y12774D01*
X12313Y12916D02*
G01X12689Y13059D01*
X12564Y12828D02*
G01Y13007D01*
X12402Y13447D02*
G01X12366Y13428D01*
X12331Y13393*
X12313Y13357*
Y13286*
X12331Y13249*
X12366Y13214*
X12402Y13195*
X12456Y13178*
X12545*
X12599Y13195*
X12635Y13214*
X12670Y13249*
X12689Y13286*
Y13357*
X12670Y13393*
X12635Y13428*
X12599Y13447*
X13106Y7945D02*
G01X13124Y7909D01*
X13160Y7874*
X13195Y7855*
X13249Y7839*
X13340*
X13393Y7855*
X13428Y7874*
X13465Y7909*
X13482Y7945*
Y8018*
X13465Y8053*
X13428Y8089*
X13393Y8107*
X13340Y8124*
X13249*
X13195Y8107*
X13160Y8089*
X13124Y8053*
X13106Y8018*
Y7945*
Y8243D02*
G01X13374D01*
X13428Y8261*
X13465Y8297*
X13482Y8349*
Y8386*
X13465Y8439*
X13428Y8476*
X13374Y8493*
X13106*
Y8736D02*
G01X13482D01*
X13106Y8611D02*
G01Y8861D01*
Y8980D02*
G01X13482D01*
X13106D02*
G01Y9141D01*
X13124Y9195*
X13143Y9213*
X13178Y9230*
X13231*
X13268Y9213*
X13285Y9195*
X13303Y9141*
Y8980*
X13106Y9349D02*
G01X13374D01*
X13428Y9366*
X13465Y9403*
X13482Y9455*
Y9491*
X13465Y9545*
X13428Y9582*
X13374Y9599*
X13106*
Y9843D02*
G01X13482D01*
X13106Y9718D02*
G01Y9968D01*
X13268Y10103D02*
G01X13285Y10086D01*
X13303Y10103*
X13285Y10122*
X13268Y10103*
X13393D02*
G01X13410Y10086D01*
X13428Y10103*
X13410Y10122*
X13393Y10103*
X13106Y10730D02*
G01Y10551D01*
X13268Y10534*
X13249Y10551*
X13231Y10605*
Y10659*
X13249Y10713*
X13285Y10747*
X13340Y10766*
X13374*
X13428Y10747*
X13465Y10713*
X13482Y10659*
Y10605*
X13465Y10551*
X13447Y10534*
X13410Y10516*
X13106Y10884D02*
G01X13482Y11028D01*
X13106Y11170D02*
G01X13482Y11028D01*
X13106Y11289D02*
G01X13482D01*
X13106D02*
G01Y11414D01*
X13124Y11468*
X13160Y11503*
X13195Y11520*
X13249Y11539*
X13340*
X13393Y11520*
X13428Y11503*
X13465Y11468*
X13482Y11414*
Y11289*
X13195Y11926D02*
G01X13160Y11907D01*
X13124Y11872*
X13106Y11836*
Y11764*
X13124Y11728*
X13160Y11693*
X13195Y11674*
X13249Y11657*
X13340*
X13393Y11674*
X13428Y11693*
X13465Y11728*
X13482Y11764*
Y11836*
X13465Y11872*
X13428Y11907*
X13393Y11926*
X13035Y12366D02*
G01X13607Y12043D01*
X13106Y12520D02*
G01Y12716D01*
X13249Y12609*
Y12663*
X13268Y12699*
X13285Y12716*
X13340Y12734*
X13374*
X13428Y12716*
X13465Y12680*
X13482Y12626*
Y12574*
X13465Y12520*
X13447Y12501*
X13410Y12484*
X13106Y12853D02*
G01X13482Y12941D01*
X13106Y13032D02*
G01X13482Y12941D01*
X13106Y13032D02*
G01X13482Y13120D01*
X13106Y13211D02*
G01X13482Y13120D01*
G54D28*
X11766Y15655D02*
G01Y15441D01*
X11960Y15418*
X11938Y15441*
X11916Y15505*
Y15570*
X11938Y15634*
X11981Y15676*
X12044Y15697*
X12088*
X12152Y15676*
X12195Y15634*
X12216Y15570*
Y15505*
X12195Y15441*
X12173Y15418*
X12131Y15397*
X11766Y15839D02*
G01X12216Y16011D01*
X11766Y16182D02*
G01X12216Y16011D01*
G54D26*
X22236Y6293D02*
G01X22195Y6334D01*
X22134Y6354*
X22052*
X21991Y6334*
X21950Y6293*
Y6252*
X21970Y6211*
X21991Y6190*
X22032Y6170*
X22155Y6129*
X22195Y6109*
X22216Y6088*
X22236Y6047*
Y5986*
X22195Y5945*
X22134Y5925*
X22052*
X21991Y5945*
X21950Y5986*
X22658Y6293D02*
G01X22617Y6334D01*
X22555Y6354*
X22474*
X22412Y6334*
X22371Y6293*
Y6252*
X22392Y6211*
X22412Y6190*
X22453Y6170*
X22576Y6129*
X22617Y6109*
X22637Y6088*
X22658Y6047*
Y5986*
X22617Y5945*
X22555Y5925*
X22474*
X22412Y5945*
X22371Y5986*
X22793Y6354D02*
G01Y5925D01*
Y6354D02*
G01X22977D01*
X23038Y6334*
X23059Y6313*
X23079Y6272*
Y6231*
X23059Y6190*
X23038Y6170*
X22977Y6150*
X22793*
X22936D02*
G01X23079Y5925D01*
X23255Y6354D02*
G01X23480D01*
X23357Y6190*
X23419*
X23460Y6170*
X23480Y6150*
X23500Y6088*
Y6047*
X23480Y5986*
X23439Y5945*
X23378Y5925*
X23316*
X23255Y5945*
X23235Y5965*
X23214Y6006*
G54D29*
X25593Y5100D02*
G01X25450Y4724D01*
X25593Y5100D02*
G01X25736Y4724D01*
X25504Y4849D02*
G01X25683D01*
X26123Y5010D02*
G01X26105Y5046D01*
X26069Y5082*
X26033Y5100*
X25962*
X25926Y5082*
X25890Y5046*
X25872Y5010*
X25854Y4957*
Y4867*
X25872Y4813*
X25890Y4778*
X25926Y4742*
X25962Y4724*
X26033*
X26069Y4742*
X26105Y4778*
X26123Y4813*
X22593Y5115D02*
G01X22450Y4739D01*
X22593Y5115D02*
G01X22736Y4739D01*
X22504Y4864D02*
G01X22683D01*
X23123Y5025D02*
G01X23105Y5061D01*
X23069Y5097*
X23033Y5115*
X22962*
X22926Y5097*
X22890Y5061*
X22872Y5025*
X22854Y4972*
Y4882*
X22872Y4828*
X22890Y4793*
X22926Y4757*
X22962Y4739*
X23033*
X23069Y4757*
X23105Y4793*
X23123Y4828*
X18811Y5000D02*
G01Y4678D01*
X18650Y4839D02*
G01X18972D01*
X17550Y4800D02*
G01X17872D01*
G54D26*
X22186Y9893D02*
G01X22145Y9934D01*
X22084Y9954*
X22002*
X21941Y9934*
X21900Y9893*
Y9852*
X21920Y9811*
X21941Y9790*
X21982Y9770*
X22105Y9729*
X22145Y9709*
X22166Y9688*
X22186Y9647*
Y9586*
X22145Y9545*
X22084Y9525*
X22002*
X21941Y9545*
X21900Y9586*
X22608Y9893D02*
G01X22567Y9934D01*
X22505Y9954*
X22424*
X22362Y9934*
X22321Y9893*
Y9852*
X22342Y9811*
X22362Y9790*
X22403Y9770*
X22526Y9729*
X22567Y9709*
X22587Y9688*
X22608Y9647*
Y9586*
X22567Y9545*
X22505Y9525*
X22424*
X22362Y9545*
X22321Y9586*
X22743Y9954D02*
G01Y9525D01*
Y9954D02*
G01X22927D01*
X22988Y9934*
X23009Y9913*
X23029Y9872*
Y9831*
X23009Y9790*
X22988Y9770*
X22927Y9750*
X22743*
X22886D02*
G01X23029Y9525D01*
X23185Y9852D02*
G01Y9872D01*
X23205Y9913*
X23225Y9934*
X23266Y9954*
X23348*
X23389Y9934*
X23410Y9913*
X23430Y9872*
Y9831*
X23410Y9790*
X23369Y9729*
X23164Y9525*
X23450*
G54D29*
X25543Y8700D02*
G01X25400Y8324D01*
X25543Y8700D02*
G01X25686Y8324D01*
X25454Y8449D02*
G01X25633D01*
X26073Y8610D02*
G01X26055Y8646D01*
X26019Y8682*
X25983Y8700*
X25912*
X25876Y8682*
X25840Y8646*
X25822Y8610*
X25804Y8557*
Y8467*
X25822Y8413*
X25840Y8378*
X25876Y8342*
X25912Y8324*
X25983*
X26019Y8342*
X26055Y8378*
X26073Y8413*
X22543Y8715D02*
G01X22400Y8339D01*
X22543Y8715D02*
G01X22686Y8339D01*
X22454Y8464D02*
G01X22633D01*
X23073Y8625D02*
G01X23055Y8661D01*
X23019Y8697*
X22983Y8715*
X22912*
X22876Y8697*
X22840Y8661*
X22822Y8625*
X22804Y8572*
Y8482*
X22822Y8428*
X22840Y8393*
X22876Y8357*
X22912Y8339*
X22983*
X23019Y8357*
X23055Y8393*
X23073Y8428*
X18761Y8600D02*
G01Y8278D01*
X18600Y8439D02*
G01X18922D01*
X17500Y8400D02*
G01X17822D01*
G54D26*
X22236Y13393D02*
G01X22195Y13434D01*
X22134Y13454*
X22052*
X21991Y13434*
X21950Y13393*
Y13352*
X21970Y13311*
X21991Y13290*
X22032Y13270*
X22155Y13229*
X22195Y13209*
X22216Y13188*
X22236Y13147*
Y13086*
X22195Y13045*
X22134Y13025*
X22052*
X21991Y13045*
X21950Y13086*
X22658Y13393D02*
G01X22617Y13434D01*
X22555Y13454*
X22474*
X22412Y13434*
X22371Y13393*
Y13352*
X22392Y13311*
X22412Y13290*
X22453Y13270*
X22576Y13229*
X22617Y13209*
X22637Y13188*
X22658Y13147*
Y13086*
X22617Y13045*
X22555Y13025*
X22474*
X22412Y13045*
X22371Y13086*
X22793Y13454D02*
G01Y13025D01*
Y13454D02*
G01X22977D01*
X23038Y13434*
X23059Y13413*
X23079Y13372*
Y13331*
X23059Y13290*
X23038Y13270*
X22977Y13250*
X22793*
X22936D02*
G01X23079Y13025D01*
X23214Y13372D02*
G01X23255Y13393D01*
X23316Y13454*
Y13025*
G54D29*
X25593Y12200D02*
G01X25450Y11824D01*
X25593Y12200D02*
G01X25736Y11824D01*
X25504Y11949D02*
G01X25683D01*
X26123Y12110D02*
G01X26105Y12146D01*
X26069Y12182*
X26033Y12200*
X25962*
X25926Y12182*
X25890Y12146*
X25872Y12110*
X25854Y12057*
Y11967*
X25872Y11913*
X25890Y11878*
X25926Y11842*
X25962Y11824*
X26033*
X26069Y11842*
X26105Y11878*
X26123Y11913*
X22593Y12215D02*
G01X22450Y11839D01*
X22593Y12215D02*
G01X22736Y11839D01*
X22504Y11964D02*
G01X22683D01*
X23123Y12125D02*
G01X23105Y12161D01*
X23069Y12197*
X23033Y12215*
X22962*
X22926Y12197*
X22890Y12161*
X22872Y12125*
X22854Y12072*
Y11982*
X22872Y11928*
X22890Y11893*
X22926Y11857*
X22962Y11839*
X23033*
X23069Y11857*
X23105Y11893*
X23123Y11928*
X18811Y12100D02*
G01Y11778D01*
X18650Y11939D02*
G01X18972D01*
X17550Y11900D02*
G01X17872D01*
G54D26*
X22236Y17293D02*
G01X22195Y17334D01*
X22134Y17354*
X22052*
X21991Y17334*
X21950Y17293*
Y17252*
X21970Y17211*
X21991Y17190*
X22032Y17170*
X22155Y17129*
X22195Y17109*
X22216Y17088*
X22236Y17047*
Y16986*
X22195Y16945*
X22134Y16925*
X22052*
X21991Y16945*
X21950Y16986*
X22658Y17293D02*
G01X22617Y17334D01*
X22555Y17354*
X22474*
X22412Y17334*
X22371Y17293*
Y17252*
X22392Y17211*
X22412Y17190*
X22453Y17170*
X22576Y17129*
X22617Y17109*
X22637Y17088*
X22658Y17047*
Y16986*
X22617Y16945*
X22555Y16925*
X22474*
X22412Y16945*
X22371Y16986*
X22793Y17354D02*
G01Y16925D01*
Y17354D02*
G01X22977D01*
X23038Y17334*
X23059Y17313*
X23079Y17272*
Y17231*
X23059Y17190*
X23038Y17170*
X22977Y17150*
X22793*
X22936D02*
G01X23079Y16925D01*
X23419Y17354D02*
G01X23214Y17068D01*
X23521*
X23419Y17354D02*
G01Y16925D01*
G54D29*
X25593Y16100D02*
G01X25450Y15724D01*
X25593Y16100D02*
G01X25736Y15724D01*
X25504Y15849D02*
G01X25683D01*
X26123Y16010D02*
G01X26105Y16046D01*
X26069Y16082*
X26033Y16100*
X25962*
X25926Y16082*
X25890Y16046*
X25872Y16010*
X25854Y15957*
Y15867*
X25872Y15813*
X25890Y15778*
X25926Y15742*
X25962Y15724*
X26033*
X26069Y15742*
X26105Y15778*
X26123Y15813*
X22593Y16115D02*
G01X22450Y15739D01*
X22593Y16115D02*
G01X22736Y15739D01*
X22504Y15864D02*
G01X22683D01*
X23123Y16025D02*
G01X23105Y16061D01*
X23069Y16097*
X23033Y16115*
X22962*
X22926Y16097*
X22890Y16061*
X22872Y16025*
X22854Y15972*
Y15882*
X22872Y15828*
X22890Y15793*
X22926Y15757*
X22962Y15739*
X23033*
X23069Y15757*
X23105Y15793*
X23123Y15828*
X18811Y16000D02*
G01Y15678D01*
X18650Y15839D02*
G01X18972D01*
X17550Y15800D02*
G01X17872D01*
X32250Y4500D02*
G01Y3500D01*
X30250*
Y4500*
X31000*
G54D72*
X32250D02*
G01X31000D01*
G54D29*
X32200Y11800D02*
G01Y10800D01*
X30200*
Y11800*
X30950*
G54D72*
X32200D02*
G01X30950D01*
G54D29*
X32300Y8850D02*
G01Y7850D01*
X30300*
Y8850*
X31050*
G54D72*
X32300D02*
G01X31050D01*
G54D29*
X32150Y14950D02*
G01Y13950D01*
X30150*
Y14950*
X30900*
G54D72*
X32150D02*
G01X30900D01*
G54D29*
X32100Y18350D02*
G01Y17350D01*
X30100*
Y18350*
X30850*
G54D72*
X32100D02*
G01X30850D01*
G54D29*
X23300Y33550D02*
G01Y27550D01*
X28300*
Y33550*
X23300*
G54D10*
X19940Y24050D02*
G01Y34290D01*
X18360Y35070*
Y37040*
X9310*
Y24050*
X10490Y22870D02*
G01X18760D01*
X8023Y3405D02*
G01Y16940D01*
X15976Y3405D02*
G01X8023D01*
X15976Y16940D02*
G01X8023D01*
X15976Y3405D02*
G01Y16940D01*
X17150Y5800D02*
G01X26750D01*
Y3600*
X17150*
Y5800*
X17100Y9400D02*
G01X26700D01*
Y7200*
X17100*
Y9400*
X17150Y12900D02*
G01X26750D01*
Y10700*
X17150*
Y12900*
Y16800D02*
G01X26750D01*
Y14600*
X17150*
Y16800*
X18756Y22870D02*
G75*
G03X19937Y24051J1181D01*
X9308D02*
G03X10489Y22870I1181J0D01*
M02*
