G04 ESP32 Guitar Tuner - Top Copper Layer*
G04 Board Size: 100mm x 50mm*
%FSLAX46Y46*%
%MOMM*%
%ADD10C,0.200*%
%ADD11C,1.600*%
%ADD12R,1.600X1.600*%
%ADD13C,1.700*%
%ADD14C,2.000*%
%ADD15C,3.400*%
%LPD*%
D10*
G01*
G04 Power Traces*
X5000000Y5000000D02*
X95000000Y5000000D01*
G04 Ground Traces*
X5000000Y3000000D02*
X95000000Y3000000D01*
G04 Signal Traces*
X15000000Y20000000D02*
X65000000Y28000000D01*
D12*
G04 TL072 Pads - Pin 1*
X11190000Y16190000D03*
D11*
G04 TL072 Pads - Pins 2-8*
X11190000Y18730000D03*
X11190000Y21270000D03*
X11190000Y23810000D03*
X18810000Y23810000D03*
X18810000Y21270000D03*
X18810000Y18730000D03*
X18810000Y16190000D03*
D13*
G04 ESP32 Header Pads*
X63730000Y17840000D03*
X63730000Y20380000D03*
X63730000Y22920000D03*
X63730000Y25460000D03*
X63730000Y28000000D03*
X63730000Y30540000D03*
X63730000Y33080000D03*
X63730000Y35620000D03*
X63730000Y38160000D03*
X66270000Y38160000D03*
X66270000Y35620000D03*
X66270000Y33080000D03*
X66270000Y30540000D03*
X66270000Y28000000D03*
X66270000Y25460000D03*
X66270000Y22920000D03*
X66270000Y20380000D03*
X66270000Y17840000D03*
D13*
G04 OLED Header 7-pin*
X42380000Y45000000D03*
X44920000Y45000000D03*
X47460000Y45000000D03*
X50000000Y45000000D03*
X52540000Y45000000D03*
X55080000Y45000000D03*
X57620000Y45000000D03*
D11*
G04 Resistor Pads*
X30000000Y12000000D03*
X40160000Y12000000D03*
X30000000Y8000000D03*
X40160000Y8000000D03*
X45000000Y8000000D03*
X55160000Y8000000D03*
X60000000Y12000000D03*
X70160000Y12000000D03*
X75000000Y12000000D03*
X85160000Y12000000D03*
X75000000Y8000000D03*
X85160000Y8000000D03*
D11*
G04 Capacitor Pads*
X25000000Y5000000D03*
X27500000Y5000000D03*
X35000000Y5000000D03*
X37500000Y5000000D03*
X45000000Y5000000D03*
X47500000Y5000000D03*
X55000000Y5000000D03*
X57500000Y5000000D03*
D14*
G04 Wire Pads - Input*
X10000000Y3000000D03*
X13810000Y3000000D03*
G04 Wire Pads - Output*
X20000000Y3000000D03*
X23810000Y3000000D03*
G04 Wire Pads - Power*
X90000000Y25000000D03*
X93810000Y25000000D03*
D15*
G04 Mounting Holes*
X5000000Y5000000D03*
X95000000Y5000000D03*
X5000000Y45000000D03*
X95000000Y45000000D03*
M02*
